<svg width="78" height="78" viewBox="0 0 78 78" fill="none" xmlns="http://www.w3.org/2000/svg">
<path d="M75.8511 35.1917C76.0496 38.2634 76.0496 41.4445 75.8511 44.5163C74.8367 60.2129 62.5084 72.7161 47.0312 73.745C41.751 74.096 36.2382 74.0952 30.9688 73.745C29.1542 73.6243 27.1763 73.1913 25.4728 72.4897C23.5775 71.7092 22.6297 71.3188 22.1481 71.378C21.6665 71.4372 20.9677 71.9525 19.5701 72.9831C17.1059 74.8003 14.0016 76.1054 9.39787 75.9933C7.06996 75.9366 5.906 75.9083 5.38492 75.0199C4.86383 74.1314 5.51282 72.9016 6.81079 70.4419C8.61095 67.0306 9.75153 63.1251 8.02326 59.9961C5.0467 55.5265 2.51835 50.2332 2.14889 44.5163C1.95037 41.4445 1.95037 38.2634 2.14889 35.1917C3.16331 19.495 15.4916 6.99179 30.9688 5.96298C35.4178 5.66723 36.3404 5.62068 40.85 5.82461" stroke="#38608F" stroke-width="3" stroke-linecap="round" stroke-linejoin="round"/>
<path d="M26.05 50.1001H51.95M26.05 31.6001H39" stroke="#38608F" stroke-width="3" stroke-linecap="round" stroke-linejoin="round"/>
<path d="M76 14.9501C76 22.1021 70.2021 27.9001 63.05 27.9001C55.8979 27.9001 50.1 22.1021 50.1 14.9501C50.1 7.79797 55.8979 2.00006 63.05 2.00006C70.2021 2.00006 76 7.79797 76 14.9501Z" stroke="#38608F" stroke-width="3"/>
</svg>
