<svg width="230" height="45" viewBox="0 0 230 45" fill="none" xmlns="http://www.w3.org/2000/svg">
<path d="M38.9276 19.1473C39.0241 20.6417 39.0241 22.1892 38.9276 23.6836C38.4341 31.3198 32.4365 37.4024 24.9071 37.903C22.3383 38.0737 19.6564 38.0734 17.0929 37.903C16.2101 37.8443 15.2479 37.6336 14.4192 37.2923C13.4972 36.9126 13.0361 36.7227 12.8018 36.7515C12.5675 36.7803 12.2275 37.031 11.5476 37.5323C10.3488 38.4163 8.8386 39.0513 6.59897 38.9967C5.46647 38.9692 4.90022 38.9554 4.64672 38.5232C4.39322 38.091 4.70894 37.4927 5.34038 36.2961C6.21614 34.6365 6.77101 32.7366 5.93023 31.2143C4.48218 29.0399 3.25217 26.4648 3.07243 23.6836C2.97586 22.1892 2.97586 20.6417 3.07243 19.1473C3.56594 11.5111 9.5635 5.42844 17.0929 4.92794C19.2573 4.78406 19.7061 4.76141 21.9 4.86062" stroke="#8B9DB3" stroke-width="5" stroke-linecap="round" stroke-linejoin="round"/>
<path d="M14.7 26.4H27.3M14.7 17.4H21" stroke="#8B9DB3" stroke-width="5" stroke-linecap="round" stroke-linejoin="round"/>
<path d="M39 9.30003C39 12.7794 36.1794 15.6 32.7 15.6C29.2206 15.6 26.4 12.7794 26.4 9.30003C26.4 5.82064 29.2206 3.00003 32.7 3.00003C36.1794 3.00003 39 5.82064 39 9.30003Z" stroke="#8B9DB3" stroke-width="5"/>
<path d="M199.831 35C199.831 29.88 199.831 24.72 199.831 19.52C199.831 14.28 199.831 9.1 199.831 3.98C201.471 3.98 203.131 3.98 204.811 3.98C206.491 3.98 208.131 3.98 209.731 3.98C209.731 4.26 209.731 4.52 209.731 4.76C209.731 5 209.731 5.26 209.731 5.54C210.811 4.78 212.011 4.2 213.331 3.8C214.691 3.36 216.151 3.14 217.711 3.14C219.991 3.14 221.991 3.66 223.711 4.7C225.471 5.74 226.831 7.24 227.791 9.2C228.791 11.12 229.291 13.44 229.291 16.16C229.291 19.28 229.291 22.42 229.291 25.58C229.291 28.74 229.291 31.88 229.291 35C227.691 35 226.051 35 224.371 35C222.691 35 221.031 35 219.391 35C219.391 32.12 219.391 29.2 219.391 26.24C219.391 23.28 219.391 20.36 219.391 17.48C219.391 15.88 219.011 14.6 218.251 13.64C217.531 12.64 216.371 12.14 214.771 12.14C213.171 12.14 211.931 12.6 211.051 13.52C210.171 14.44 209.731 15.76 209.731 17.48C209.731 20.36 209.731 23.28 209.731 26.24C209.731 29.2 209.731 32.12 209.731 35C208.131 35 206.491 35 204.811 35C203.131 35 201.471 35 199.831 35Z" fill="#8B9DB3"/>
<path d="M178.555 35.96C176.235 35.96 174.075 35.56 172.075 34.76C170.075 33.92 168.335 32.76 166.855 31.28C165.375 29.76 164.215 28 163.375 26C162.575 24 162.175 21.82 162.175 19.46C162.175 17.1 162.575 14.92 163.375 12.92C164.215 10.92 165.375 9.17999 166.855 7.69999C168.335 6.21999 170.075 5.07999 172.075 4.27999C174.075 3.43999 176.235 3.01999 178.555 3.01999C180.915 3.01999 183.075 3.43999 185.035 4.27999C187.035 5.07999 188.775 6.21999 190.255 7.69999C191.735 9.17999 192.875 10.92 193.675 12.92C194.515 14.92 194.935 17.1 194.935 19.46C194.935 21.82 194.515 24 193.675 26C192.875 28 191.735 29.76 190.255 31.28C188.775 32.76 187.035 33.92 185.035 34.76C183.075 35.56 180.915 35.96 178.555 35.96ZM178.555 27.02C180.515 27.02 182.075 26.32 183.235 24.92C184.435 23.48 185.035 21.66 185.035 19.46C185.035 17.22 184.435 15.42 183.235 14.06C182.075 12.66 180.515 11.96 178.555 11.96C176.595 11.96 175.015 12.66 173.815 14.06C172.655 15.42 172.075 17.22 172.075 19.46C172.075 21.66 172.655 23.48 173.815 24.92C175.015 26.32 176.595 27.02 178.555 27.02Z" fill="#8B9DB3"/>
<path d="M140.476 35C140.476 29.88 140.476 24.72 140.476 19.52C140.476 14.28 140.476 9.09999 140.476 3.97999C142.116 3.97999 143.776 3.97999 145.456 3.97999C147.136 3.97999 148.776 3.97999 150.376 3.97999C150.376 4.25999 150.376 4.53999 150.376 4.81999C150.376 5.09999 150.376 5.37999 150.376 5.65999C151.616 4.77999 153.016 4.11999 154.576 3.67999C156.136 3.23999 157.836 3.11999 159.676 3.31999C159.676 4.91999 159.676 6.53999 159.676 8.17999C159.676 9.81999 159.676 11.44 159.676 13.04C156.516 12.6 154.176 12.88 152.656 13.88C151.136 14.84 150.376 16.42 150.376 18.62C150.376 21.3 150.376 24.02 150.376 26.78C150.376 29.54 150.376 32.28 150.376 35C148.776 35 147.136 35 145.456 35C143.776 35 142.116 35 140.476 35Z" fill="#8B9DB3"/>
<path d="M133.133 33.56C130.373 34.72 127.633 35.44 124.913 35.72C122.193 36 119.613 35.84 117.173 35.24C114.773 34.68 112.633 33.7 110.753 32.3C108.873 30.9 107.393 29.12 106.313 26.96C105.273 24.8 104.753 22.3 104.753 19.46C104.753 17.1 105.133 14.94 105.893 12.98C106.693 10.98 107.813 9.23999 109.253 7.75999C110.693 6.23999 112.393 5.07999 114.353 4.27999C116.313 3.43999 118.453 3.01999 120.773 3.01999C122.853 3.01999 124.733 3.35999 126.413 4.03999C128.093 4.71999 129.553 5.67999 130.793 6.91999C132.033 8.11999 133.033 9.55999 133.793 11.24C134.553 12.92 135.033 14.76 135.233 16.76C135.433 18.76 135.313 20.88 134.873 23.12C131.593 23.12 128.293 23.12 124.973 23.12C121.653 23.12 118.353 23.12 115.073 23.12C115.833 24.64 117.093 25.72 118.853 26.36C120.653 27 122.773 27.2 125.213 26.96C127.693 26.72 130.333 26.08 133.133 25.04C133.133 26.44 133.133 27.86 133.133 29.3C133.133 30.74 133.133 32.16 133.133 33.56ZM120.533 11.9C119.373 11.9 118.293 12.22 117.293 12.86C116.333 13.5 115.593 14.48 115.073 15.8C116.873 15.8 118.673 15.8 120.473 15.8C122.313 15.8 124.133 15.8 125.933 15.8C125.453 14.44 124.733 13.46 123.773 12.86C122.853 12.22 121.773 11.9 120.533 11.9Z" fill="#8B9DB3"/>
<path d="M79.1258 44.6C77.5258 44.6 75.8858 44.6 74.2058 44.6C72.5258 44.6 70.8658 44.6 69.2258 44.6C69.2258 37.92 69.2258 31.16 69.2258 24.32C69.2258 17.44 69.2258 10.66 69.2258 3.98C70.8658 3.98 72.5258 3.98 74.2058 3.98C75.8858 3.98 77.5258 3.98 79.1258 3.98C79.1258 4.26 79.1258 4.54 79.1258 4.82C79.1258 5.1 79.1258 5.4 79.1258 5.72C80.1258 4.92 81.2658 4.3 82.5458 3.86C83.8258 3.38 85.1858 3.14 86.6258 3.14C88.6258 3.14 90.5258 3.54 92.3258 4.34C94.1258 5.1 95.7058 6.2 97.0658 7.64C98.4658 9.08 99.5458 10.8 100.306 12.8C101.106 14.8 101.506 17.02 101.506 19.46C101.506 21.86 101.106 24.06 100.306 26.06C99.5458 28.06 98.4658 29.8 97.0658 31.28C95.7058 32.72 94.1258 33.84 92.3258 34.64C90.5258 35.44 88.6058 35.84 86.5658 35.84C85.1258 35.84 83.7658 35.6 82.4858 35.12C81.2458 34.68 80.1258 34.04 79.1258 33.2C79.1258 35.08 79.1258 36.98 79.1258 38.9C79.1258 40.82 79.1258 42.72 79.1258 44.6ZM85.2458 27.08C87.2058 27.08 88.7458 26.4 89.8658 25.04C91.0258 23.64 91.6058 21.78 91.6058 19.46C91.6058 17.14 91.0258 15.3 89.8658 13.94C88.7458 12.58 87.2058 11.9 85.2458 11.9C83.3258 11.9 81.7858 12.6 80.6258 14C79.4658 15.36 78.8858 17.18 78.8858 19.46C78.8858 21.74 79.4658 23.58 80.6258 24.98C81.7858 26.38 83.3258 27.08 85.2458 27.08Z" fill="#8B9DB3"/>
<path d="M50 35C50 29.7294 50 24.3961 50 19C50 13.6039 50 8.27059 50 3C51.8438 3 53.6876 3 55.5314 3C57.3752 3 59.1981 3 61 3C61 8.27059 61 13.6039 61 19C61 24.3961 61 29.7294 61 35C59.1981 35 57.3752 35 55.5314 35C53.6876 35 51.8438 35 50 35Z" fill="#8B9DB3"/>
</svg>
